<svg width="249" height="207" viewBox="0 0 249 207" fill="none" xmlns="http://www.w3.org/2000/svg">
<rect width="249" height="207" rx="10" fill="#F8F7FF"/>
<circle cx="124" cy="70" r="47.5" fill="#00B4D8" stroke="#00B4D8"/>
<circle cx="124" cy="70" r="42.7" fill="white" stroke="#00B4D8"/>
<line x1="78.1" y1="69.5" x2="169.9" y2="69.5" stroke="#00B4D8" stroke-linecap="round" stroke-dasharray="2 2"/>
<path d="M121.641 62.992C121.641 62.544 121.732 62.152 121.913 61.816C122.094 61.4747 122.342 61.2107 122.657 61.024C122.977 60.8373 123.334 60.744 123.729 60.744C124.07 60.744 124.388 60.824 124.681 60.984C124.974 61.1387 125.198 61.344 125.353 61.6V59.28H126.089V65.2H125.353V64.376C125.209 64.6373 124.996 64.8533 124.713 65.024C124.43 65.1893 124.1 65.272 123.721 65.272C123.332 65.272 122.977 65.176 122.657 64.984C122.342 64.792 122.094 64.5227 121.913 64.176C121.732 63.8293 121.641 63.4347 121.641 62.992ZM125.353 63C125.353 62.6693 125.286 62.3813 125.153 62.136C125.02 61.8907 124.838 61.704 124.609 61.576C124.385 61.4427 124.137 61.376 123.865 61.376C123.593 61.376 123.345 61.44 123.121 61.568C122.897 61.696 122.718 61.8827 122.585 62.128C122.452 62.3733 122.385 62.6613 122.385 62.992C122.385 63.328 122.452 63.6213 122.585 63.872C122.718 64.1173 122.897 64.3067 123.121 64.44C123.345 64.568 123.593 64.632 123.865 64.632C124.137 64.632 124.385 64.568 124.609 64.44C124.838 64.3067 125.02 64.1173 125.153 63.872C125.286 63.6213 125.353 63.3307 125.353 63Z" fill="#00B4D8"/>
<path d="M43.135 140.12C46.175 140.12 48.8017 140.693 51.015 141.84C53.255 142.96 54.9617 144.573 56.135 146.68C57.335 148.787 57.935 151.267 57.935 154.12C57.935 156.973 57.335 159.453 56.135 161.56C54.9617 163.64 53.255 165.24 51.015 166.36C48.8017 167.453 46.175 168 43.135 168H34.455V140.12H43.135ZM43.135 165C46.735 165 49.4817 164.053 51.375 162.16C53.2683 160.24 54.215 157.56 54.215 154.12C54.215 150.653 53.255 147.947 51.335 146C49.4417 144.053 46.7083 143.08 43.135 143.08H38.095V165H43.135ZM64.6163 142.52C63.9229 142.52 63.3363 142.28 62.8563 141.8C62.3763 141.32 62.1363 140.733 62.1363 140.04C62.1363 139.347 62.3763 138.76 62.8563 138.28C63.3363 137.8 63.9229 137.56 64.6163 137.56C65.2829 137.56 65.8429 137.8 66.2963 138.28C66.7763 138.76 67.0163 139.347 67.0163 140.04C67.0163 140.733 66.7763 141.32 66.2963 141.8C65.8429 142.28 65.2829 142.52 64.6163 142.52ZM66.3763 146.08V168H62.7363V146.08H66.3763ZM71.22 156.96C71.22 154.72 71.6733 152.76 72.58 151.08C73.4867 149.373 74.7267 148.053 76.3 147.12C77.9 146.187 79.6733 145.72 81.62 145.72C83.54 145.72 85.2067 146.133 86.62 146.96C88.0333 147.787 89.0867 148.827 89.78 150.08V146.08H93.46V168H89.78V163.92C89.06 165.2 87.98 166.267 86.54 167.12C85.1267 167.947 83.4733 168.36 81.58 168.36C79.6333 168.36 77.8733 167.88 76.3 166.92C74.7267 165.96 73.4867 164.613 72.58 162.88C71.6733 161.147 71.22 159.173 71.22 156.96ZM89.78 157C89.78 155.347 89.4467 153.907 88.78 152.68C88.1133 151.453 87.2067 150.52 86.06 149.88C84.94 149.213 83.7 148.88 82.34 148.88C80.98 148.88 79.74 149.2 78.62 149.84C77.5 150.48 76.6067 151.413 75.94 152.64C75.2733 153.867 74.94 155.307 74.94 156.96C74.94 158.64 75.2733 160.107 75.94 161.36C76.6067 162.587 77.5 163.533 78.62 164.2C79.74 164.84 80.98 165.16 82.34 165.16C83.7 165.16 84.94 164.84 86.06 164.2C87.2067 163.533 88.1133 162.587 88.78 161.36C89.4467 160.107 89.78 158.653 89.78 157ZM83.06 140.72L77.5 144.12V141.24L83.06 137.92L88.58 141.24V144.12L83.06 140.72ZM125.971 145.68C127.678 145.68 129.198 146.04 130.531 146.76C131.865 147.453 132.918 148.507 133.691 149.92C134.465 151.333 134.851 153.053 134.851 155.08V168H131.251V155.6C131.251 153.413 130.705 151.747 129.611 150.6C128.545 149.427 127.091 148.84 125.251 148.84C123.358 148.84 121.851 149.453 120.731 150.68C119.611 151.88 119.051 153.627 119.051 155.92V168H115.451V155.6C115.451 153.413 114.905 151.747 113.811 150.6C112.745 149.427 111.291 148.84 109.451 148.84C107.558 148.84 106.051 149.453 104.931 150.68C103.811 151.88 103.251 153.627 103.251 155.92V168H99.6113V146.08H103.251V149.24C103.971 148.093 104.931 147.213 106.131 146.6C107.358 145.987 108.705 145.68 110.171 145.68C112.011 145.68 113.638 146.093 115.051 146.92C116.465 147.747 117.518 148.96 118.211 150.56C118.825 149.013 119.838 147.813 121.251 146.96C122.665 146.107 124.238 145.68 125.971 145.68ZM160.822 156.2C160.822 156.893 160.782 157.627 160.702 158.4H143.182C143.316 160.56 144.049 162.253 145.382 163.48C146.742 164.68 148.382 165.28 150.302 165.28C151.876 165.28 153.182 164.92 154.222 164.2C155.289 163.453 156.036 162.467 156.462 161.24H160.382C159.796 163.347 158.622 165.067 156.862 166.4C155.102 167.707 152.916 168.36 150.302 168.36C148.222 168.36 146.356 167.893 144.702 166.96C143.076 166.027 141.796 164.707 140.862 163C139.929 161.267 139.462 159.267 139.462 157C139.462 154.733 139.916 152.747 140.822 151.04C141.729 149.333 142.996 148.027 144.622 147.12C146.276 146.187 148.169 145.72 150.302 145.72C152.382 145.72 154.222 146.173 155.822 147.08C157.422 147.987 158.649 149.24 159.502 150.84C160.382 152.413 160.822 154.2 160.822 156.2ZM157.062 155.44C157.062 154.053 156.756 152.867 156.142 151.88C155.529 150.867 154.689 150.107 153.622 149.6C152.582 149.067 151.422 148.8 150.142 148.8C148.302 148.8 146.729 149.387 145.422 150.56C144.142 151.733 143.409 153.36 143.222 155.44H157.062ZM170.067 149.08V162C170.067 163.067 170.294 163.827 170.747 164.28C171.2 164.707 171.987 164.92 173.107 164.92H175.787V168H172.507C170.48 168 168.96 167.533 167.947 166.6C166.934 165.667 166.427 164.133 166.427 162V149.08H163.587V146.08H166.427V140.56H170.067V146.08H175.787V149.08H170.067ZM183.837 149.64C184.477 148.387 185.384 147.413 186.557 146.72C187.757 146.027 189.211 145.68 190.917 145.68V149.44H189.957C185.877 149.44 183.837 151.653 183.837 156.08V168H180.197V146.08H183.837V149.64ZM204.679 168.36C202.626 168.36 200.759 167.893 199.079 166.96C197.426 166.027 196.119 164.707 195.159 163C194.226 161.267 193.759 159.267 193.759 157C193.759 154.76 194.239 152.787 195.199 151.08C196.186 149.347 197.519 148.027 199.199 147.12C200.879 146.187 202.759 145.72 204.839 145.72C206.919 145.72 208.799 146.187 210.479 147.12C212.159 148.027 213.479 149.333 214.439 151.04C215.426 152.747 215.919 154.733 215.919 157C215.919 159.267 215.412 161.267 214.399 163C213.412 164.707 212.066 166.027 210.359 166.96C208.652 167.893 206.759 168.36 204.679 168.36ZM204.679 165.16C205.986 165.16 207.212 164.853 208.359 164.24C209.506 163.627 210.426 162.707 211.119 161.48C211.839 160.253 212.199 158.76 212.199 157C212.199 155.24 211.852 153.747 211.159 152.52C210.466 151.293 209.559 150.387 208.439 149.8C207.319 149.187 206.106 148.88 204.799 148.88C203.466 148.88 202.239 149.187 201.119 149.8C200.026 150.387 199.146 151.293 198.479 152.52C197.812 153.747 197.479 155.24 197.479 157C197.479 158.787 197.799 160.293 198.439 161.52C199.106 162.747 199.986 163.667 201.079 164.28C202.172 164.867 203.372 165.16 204.679 165.16Z" fill="#00B4D8"/>
</svg>
