<svg width="249" height="207" viewBox="0 0 249 207" fill="none" xmlns="http://www.w3.org/2000/svg">
<rect width="249" height="207" rx="10" fill="#F8F7FF"/>
<path d="M38.1433 42.8017L38.8064 41.5H210.213L210.931 42.7274C219.782 57.8591 219.502 76.6445 210.224 91.5H38.7963C30.5712 76.3723 30.3213 58.1559 38.1433 42.8017Z" fill="white" stroke="#00B4D8"/>
<path d="M135 22.5H144V70.7597L135 77.9597V22.5Z" fill="white" stroke="#00B4D8"/>
<line x1="46.5" y1="53.5" x2="74.5" y2="53.5" stroke="#00B4D8"/>
<line x1="87.5" y1="53.5" x2="117.5" y2="53.5" stroke="#00B4D8"/>
<line x1="79.5" y1="53.5" x2="82.5" y2="53.5" stroke="#00B4D8"/>
<line x1="46.5" y1="78.5" x2="76.5" y2="78.5" stroke="#00B4D8"/>
<line x1="87.5" y1="78.5" x2="121.5" y2="78.5" stroke="#00B4D8"/>
<line x1="80.5" y1="78.5" x2="83.5" y2="78.5" stroke="#00B4D8"/>
<line x1="40.5" y1="65.5" x2="74.5" y2="65.5" stroke="#00B4D8"/>
<line x1="83.5" y1="65.5" x2="117.5" y2="65.5" stroke="#00B4D8"/>
<line x1="77.5" y1="65.5" x2="80.5" y2="65.5" stroke="#00B4D8"/>
<line x1="120.5" y1="65.5" x2="123.5" y2="65.5" stroke="#00B4D8"/>
<line x1="148.5" y1="78.5" x2="170.5" y2="78.5" stroke="#00B4D8"/>
<line x1="178.5" y1="78.5" x2="198.5" y2="78.5" stroke="#00B4D8"/>
<line x1="173.5" y1="78.5" x2="175.409" y2="78.5" stroke="#00B4D8"/>
<line x1="155.5" y1="65.5" x2="173.5" y2="65.5" stroke="#00B4D8"/>
<line x1="178.5" y1="65.5" x2="201.5" y2="65.5" stroke="#00B4D8"/>
<line x1="175.045" y1="65.5" x2="176.955" y2="65.5" stroke="#00B4D8"/>
<path d="M56.4934 117.28C56.4934 119.6 55.6934 121.533 54.0934 123.08C52.5201 124.6 50.1068 125.36 46.8534 125.36H41.4934V137H37.8534V109.12H46.8534C50.0001 109.12 52.3868 109.88 54.0134 111.4C55.6668 112.92 56.4934 114.88 56.4934 117.28ZM46.8534 122.36C48.8801 122.36 50.3734 121.92 51.3334 121.04C52.2934 120.16 52.7734 118.907 52.7734 117.28C52.7734 113.84 50.8001 112.12 46.8534 112.12H41.4934V122.36H46.8534ZM81.0175 125.2C81.0175 125.893 80.9775 126.627 80.8975 127.4H63.3775C63.5108 129.56 64.2442 131.253 65.5775 132.48C66.9375 133.68 68.5775 134.28 70.4975 134.28C72.0708 134.28 73.3775 133.92 74.4175 133.2C75.4842 132.453 76.2308 131.467 76.6575 130.24H80.5775C79.9908 132.347 78.8175 134.067 77.0575 135.4C75.2975 136.707 73.1108 137.36 70.4975 137.36C68.4175 137.36 66.5508 136.893 64.8975 135.96C63.2708 135.027 61.9908 133.707 61.0575 132C60.1242 130.267 59.6575 128.267 59.6575 126C59.6575 123.733 60.1108 121.747 61.0175 120.04C61.9242 118.333 63.1908 117.027 64.8175 116.12C66.4708 115.187 68.3642 114.72 70.4975 114.72C72.5775 114.72 74.4175 115.173 76.0175 116.08C77.6175 116.987 78.8442 118.24 79.6975 119.84C80.5775 121.413 81.0175 123.2 81.0175 125.2ZM77.2575 124.44C77.2575 123.053 76.9508 121.867 76.3375 120.88C75.7242 119.867 74.8842 119.107 73.8175 118.6C72.7775 118.067 71.6175 117.8 70.3375 117.8C68.4975 117.8 66.9242 118.387 65.6175 119.56C64.3375 120.733 63.6042 122.36 63.4175 124.44H77.2575ZM89.4622 118.64C90.1022 117.387 91.0089 116.413 92.1822 115.72C93.3822 115.027 94.8355 114.68 96.5422 114.68V118.44H95.5822C91.5022 118.44 89.4622 120.653 89.4622 125.08V137H85.8222V115.08H89.4622V118.64ZM99.3841 125.96C99.3841 123.72 99.8374 121.76 100.744 120.08C101.651 118.373 102.891 117.053 104.464 116.12C106.064 115.187 107.851 114.72 109.824 114.72C111.531 114.72 113.117 115.12 114.584 115.92C116.051 116.693 117.171 117.72 117.944 119V107.4H121.624V137H117.944V132.88C117.224 134.187 116.157 135.267 114.744 136.12C113.331 136.947 111.677 137.36 109.784 137.36C107.837 137.36 106.064 136.88 104.464 135.92C102.891 134.96 101.651 133.613 100.744 131.88C99.8374 130.147 99.3841 128.173 99.3841 125.96ZM117.944 126C117.944 124.347 117.611 122.907 116.944 121.68C116.277 120.453 115.371 119.52 114.224 118.88C113.104 118.213 111.864 117.88 110.504 117.88C109.144 117.88 107.904 118.2 106.784 118.84C105.664 119.48 104.771 120.413 104.104 121.64C103.437 122.867 103.104 124.307 103.104 125.96C103.104 127.64 103.437 129.107 104.104 130.36C104.771 131.587 105.664 132.533 106.784 133.2C107.904 133.84 109.144 134.16 110.504 134.16C111.864 134.16 113.104 133.84 114.224 133.2C115.371 132.533 116.277 131.587 116.944 130.36C117.611 129.107 117.944 127.653 117.944 126ZM126.415 125.96C126.415 123.72 126.869 121.76 127.775 120.08C128.682 118.373 129.922 117.053 131.495 116.12C133.095 115.187 134.869 114.72 136.815 114.72C138.735 114.72 140.402 115.133 141.815 115.96C143.229 116.787 144.282 117.827 144.975 119.08V115.08H148.655V137H144.975V132.92C144.255 134.2 143.175 135.267 141.735 136.12C140.322 136.947 138.669 137.36 136.775 137.36C134.829 137.36 133.069 136.88 131.495 135.92C129.922 134.96 128.682 133.613 127.775 131.88C126.869 130.147 126.415 128.173 126.415 125.96ZM144.975 126C144.975 124.347 144.642 122.907 143.975 121.68C143.309 120.453 142.402 119.52 141.255 118.88C140.135 118.213 138.895 117.88 137.535 117.88C136.175 117.88 134.935 118.2 133.815 118.84C132.695 119.48 131.802 120.413 131.135 121.64C130.469 122.867 130.135 124.307 130.135 125.96C130.135 127.64 130.469 129.107 131.135 130.36C131.802 131.587 132.695 132.533 133.815 133.2C134.935 133.84 136.175 134.16 137.535 134.16C138.895 134.16 140.135 133.84 141.255 133.2C142.402 132.533 143.309 131.587 143.975 130.36C144.642 129.107 144.975 127.653 144.975 126ZM164.111 125.96C164.111 123.72 164.564 121.76 165.471 120.08C166.377 118.373 167.617 117.053 169.191 116.12C170.791 115.187 172.577 114.72 174.551 114.72C176.257 114.72 177.844 115.12 179.311 115.92C180.777 116.693 181.897 117.72 182.671 119V107.4H186.351V137H182.671V132.88C181.951 134.187 180.884 135.267 179.471 136.12C178.057 136.947 176.404 137.36 174.511 137.36C172.564 137.36 170.791 136.88 169.191 135.92C167.617 134.96 166.377 133.613 165.471 131.88C164.564 130.147 164.111 128.173 164.111 125.96ZM182.671 126C182.671 124.347 182.337 122.907 181.671 121.68C181.004 120.453 180.097 119.52 178.951 118.88C177.831 118.213 176.591 117.88 175.231 117.88C173.871 117.88 172.631 118.2 171.511 118.84C170.391 119.48 169.497 120.413 168.831 121.64C168.164 122.867 167.831 124.307 167.831 125.96C167.831 127.64 168.164 129.107 168.831 130.36C169.497 131.587 170.391 132.533 171.511 133.2C172.631 133.84 173.871 134.16 175.231 134.16C176.591 134.16 177.831 133.84 178.951 133.2C180.097 132.533 181.004 131.587 181.671 130.36C182.337 129.107 182.671 127.653 182.671 126ZM212.502 125.2C212.502 125.893 212.462 126.627 212.382 127.4H194.862C194.995 129.56 195.729 131.253 197.062 132.48C198.422 133.68 200.062 134.28 201.982 134.28C203.555 134.28 204.862 133.92 205.902 133.2C206.969 132.453 207.715 131.467 208.142 130.24H212.062C211.475 132.347 210.302 134.067 208.542 135.4C206.782 136.707 204.595 137.36 201.982 137.36C199.902 137.36 198.035 136.893 196.382 135.96C194.755 135.027 193.475 133.707 192.542 132C191.609 130.267 191.142 128.267 191.142 126C191.142 123.733 191.595 121.747 192.502 120.04C193.409 118.333 194.675 117.027 196.302 116.12C197.955 115.187 199.849 114.72 201.982 114.72C204.062 114.72 205.902 115.173 207.502 116.08C209.102 116.987 210.329 118.24 211.182 119.84C212.062 121.413 212.502 123.2 212.502 125.2ZM208.742 124.44C208.742 123.053 208.435 121.867 207.822 120.88C207.209 119.867 206.369 119.107 205.302 118.6C204.262 118.067 203.102 117.8 201.822 117.8C199.982 117.8 198.409 118.387 197.102 119.56C195.822 120.733 195.089 122.36 194.902 124.44H208.742ZM66.0638 166C66.0638 163.733 66.5171 161.76 67.4238 160.08C68.3304 158.373 69.5838 157.053 71.1838 156.12C72.8104 155.187 74.6638 154.72 76.7438 154.72C79.4371 154.72 81.6504 155.373 83.3838 156.68C85.1438 157.987 86.3038 159.8 86.8638 162.12H82.9438C82.5704 160.787 81.8371 159.733 80.7438 158.96C79.6771 158.187 78.3438 157.8 76.7438 157.8C74.6638 157.8 72.9838 158.52 71.7038 159.96C70.4238 161.373 69.7838 163.387 69.7838 166C69.7838 168.64 70.4238 170.68 71.7038 172.12C72.9838 173.56 74.6638 174.28 76.7438 174.28C78.3438 174.28 79.6771 173.907 80.7438 173.16C81.8104 172.413 82.5438 171.347 82.9438 169.96H86.8638C86.2771 172.2 85.1038 174 83.3438 175.36C81.5838 176.693 79.3838 177.36 76.7438 177.36C74.6638 177.36 72.8104 176.893 71.1838 175.96C69.5838 175.027 68.3304 173.707 67.4238 172C66.5171 170.293 66.0638 168.293 66.0638 166ZM90.3606 165.96C90.3606 163.72 90.814 161.76 91.7206 160.08C92.6273 158.373 93.8673 157.053 95.4406 156.12C97.0406 155.187 98.814 154.72 100.761 154.72C102.681 154.72 104.347 155.133 105.761 155.96C107.174 156.787 108.227 157.827 108.921 159.08V155.08H112.601V177H108.921V172.92C108.201 174.2 107.121 175.267 105.681 176.12C104.267 176.947 102.614 177.36 100.721 177.36C98.774 177.36 97.014 176.88 95.4406 175.92C93.8673 174.96 92.6273 173.613 91.7206 171.88C90.814 170.147 90.3606 168.173 90.3606 165.96ZM108.921 166C108.921 164.347 108.587 162.907 107.921 161.68C107.254 160.453 106.347 159.52 105.201 158.88C104.081 158.213 102.841 157.88 101.481 157.88C100.121 157.88 98.8806 158.2 97.7606 158.84C96.6406 159.48 95.7473 160.413 95.0806 161.64C94.414 162.867 94.0806 164.307 94.0806 165.96C94.0806 167.64 94.414 169.107 95.0806 170.36C95.7473 171.587 96.6406 172.533 97.7606 173.2C98.8806 173.84 100.121 174.16 101.481 174.16C102.841 174.16 104.081 173.84 105.201 173.2C106.347 172.533 107.254 171.587 107.921 170.36C108.587 169.107 108.921 167.653 108.921 166ZM122.392 158.64C123.032 157.387 123.939 156.413 125.112 155.72C126.312 155.027 127.765 154.68 129.472 154.68V158.44H128.512C124.432 158.44 122.392 160.653 122.392 165.08V177H118.752V155.08H122.392V158.64ZM142.714 154.72C144.607 154.72 146.26 155.133 147.674 155.96C149.114 156.787 150.18 157.827 150.874 159.08V155.08H154.554V177.48C154.554 179.48 154.127 181.253 153.274 182.8C152.42 184.373 151.194 185.6 149.594 186.48C148.02 187.36 146.18 187.8 144.074 187.8C141.194 187.8 138.794 187.12 136.874 185.76C134.954 184.4 133.82 182.547 133.474 180.2H137.074C137.474 181.533 138.3 182.6 139.554 183.4C140.807 184.227 142.314 184.64 144.074 184.64C146.074 184.64 147.7 184.013 148.954 182.76C150.234 181.507 150.874 179.747 150.874 177.48V172.88C150.154 174.16 149.087 175.227 147.674 176.08C146.26 176.933 144.607 177.36 142.714 177.36C140.767 177.36 138.994 176.88 137.394 175.92C135.82 174.96 134.58 173.613 133.674 171.88C132.767 170.147 132.314 168.173 132.314 165.96C132.314 163.72 132.767 161.76 133.674 160.08C134.58 158.373 135.82 157.053 137.394 156.12C138.994 155.187 140.767 154.72 142.714 154.72ZM150.874 166C150.874 164.347 150.54 162.907 149.874 161.68C149.207 160.453 148.3 159.52 147.154 158.88C146.034 158.213 144.794 157.88 143.434 157.88C142.074 157.88 140.834 158.2 139.714 158.84C138.594 159.48 137.7 160.413 137.034 161.64C136.367 162.867 136.034 164.307 136.034 165.96C136.034 167.64 136.367 169.107 137.034 170.36C137.7 171.587 138.594 172.533 139.714 173.2C140.834 173.84 142.074 174.16 143.434 174.16C144.794 174.16 146.034 173.84 147.154 173.2C148.3 172.533 149.207 171.587 149.874 170.36C150.54 169.107 150.874 167.653 150.874 166ZM159.345 165.96C159.345 163.72 159.798 161.76 160.705 160.08C161.612 158.373 162.852 157.053 164.425 156.12C166.025 155.187 167.798 154.72 169.745 154.72C171.665 154.72 173.332 155.133 174.745 155.96C176.158 156.787 177.212 157.827 177.905 159.08V155.08H181.585V177H177.905V172.92C177.185 174.2 176.105 175.267 174.665 176.12C173.252 176.947 171.598 177.36 169.705 177.36C167.758 177.36 165.998 176.88 164.425 175.92C162.852 174.96 161.612 173.613 160.705 171.88C159.798 170.147 159.345 168.173 159.345 165.96ZM177.905 166C177.905 164.347 177.572 162.907 176.905 161.68C176.238 160.453 175.332 159.52 174.185 158.88C173.065 158.213 171.825 157.88 170.465 157.88C169.105 157.88 167.865 158.2 166.745 158.84C165.625 159.48 164.732 160.413 164.065 161.64C163.398 162.867 163.065 164.307 163.065 165.96C163.065 167.64 163.398 169.107 164.065 170.36C164.732 171.587 165.625 172.533 166.745 173.2C167.865 173.84 169.105 174.16 170.465 174.16C171.825 174.16 173.065 173.84 174.185 173.2C175.332 172.533 176.238 171.587 176.905 170.36C177.572 169.107 177.905 167.653 177.905 166Z" fill="#00B4D8"/>
</svg>
