<svg width="249" height="207" viewBox="0 0 249 207" fill="none" xmlns="http://www.w3.org/2000/svg">
<rect width="249" height="207" rx="10" fill="#F8F7FF"/>
<rect x="62.8925" y="34.4512" width="77.0561" height="64.6504" rx="4.5" fill="white" stroke="#00B4D8"/>
<rect x="51.5093" y="27.5" width="11.1963" height="77.7805" rx="4.5" fill="white" stroke="#00B4D8"/>
<rect x="140.136" y="27.5" width="11.1963" height="77.7805" rx="4.5" fill="white" stroke="#00B4D8"/>
<path d="M43 34.4512H46.8224C49.3077 34.4512 51.3224 36.466 51.3224 38.9512V94.6016C51.3224 97.0869 49.3077 99.1016 46.8224 99.1016H43C40.5147 99.1016 38.5 97.0869 38.5 94.6016V38.9512C38.5 36.466 40.5147 34.4512 43 34.4512Z" fill="white" stroke="#00B4D8"/>
<path d="M159.841 99.1016H156.019C153.533 99.1016 151.519 97.0869 151.519 94.6016V38.9512C151.519 36.4659 153.533 34.4512 156.019 34.4512H159.841C162.326 34.4512 164.341 36.4659 164.341 38.9512V94.6016C164.341 97.0869 162.326 99.1016 159.841 99.1016Z" fill="white" stroke="#00B4D8"/>
<rect x="75.0888" y="99.3293" width="8.75701" height="12.9024" rx="4.3785" fill="white" stroke="#00B4D8"/>
<rect x="118.995" y="99.3293" width="8.75701" height="12.9024" rx="4.3785" fill="white" stroke="#00B4D8"/>
<path d="M53.5701 111.687H150.084C152.569 111.687 154.584 113.702 154.584 116.187V117C154.584 119.485 152.569 121.5 150.084 121.5H53.5701C51.0848 121.5 49.0701 119.485 49.0701 117V116.187C49.0701 113.702 51.0848 111.687 53.5701 111.687Z" fill="white" stroke="#00B4D8"/>
<line x1="73.1495" y1="44.5366" x2="129.692" y2="44.5366" stroke="#00B4D8" stroke-width="2" stroke-linecap="round"/>
<line x1="73.1495" y1="54.5772" x2="129.692" y2="54.5772" stroke="#00B4D8" stroke-width="2" stroke-linecap="round"/>
<line x1="73.1495" y1="65.7764" x2="129.692" y2="65.7764" stroke="#00B4D8" stroke-width="2" stroke-linecap="round"/>
<line x1="73.1495" y1="77.748" x2="129.692" y2="77.748" stroke="#00B4D8" stroke-width="2" stroke-linecap="round"/>
<line x1="73.1495" y1="87.0163" x2="129.692" y2="87.0163" stroke="#00B4D8" stroke-width="2" stroke-linecap="round"/>
<path d="M169.028 49.8984H180.168C182.654 49.8984 184.668 51.9131 184.668 54.3984V78.3821C184.668 80.8674 182.654 82.8821 180.168 82.8821H169.028C166.543 82.8821 164.528 80.8674 164.528 78.3821V54.3984C164.528 51.9131 166.543 49.8984 169.028 49.8984Z" fill="white" stroke="#00B4D8"/>
<rect x="184.855" y="60.7114" width="26.6449" height="11.3577" rx="4.5" fill="white" stroke="#00B4D8"/>
<path d="M59.2786 148.28C59.2786 150.6 58.4786 152.533 56.8786 154.08C55.3053 155.6 52.8919 156.36 49.6386 156.36H44.2786V168H40.6386V140.12H49.6386C52.7853 140.12 55.1719 140.88 56.7986 142.4C58.4519 143.92 59.2786 145.88 59.2786 148.28ZM49.6386 153.36C51.6653 153.36 53.1586 152.92 54.1186 152.04C55.0786 151.16 55.5586 149.907 55.5586 148.28C55.5586 144.84 53.5853 143.12 49.6386 143.12H44.2786V153.36H49.6386ZM73.3627 168.36C71.3093 168.36 69.4427 167.893 67.7627 166.96C66.1093 166.027 64.8027 164.707 63.8427 163C62.9093 161.267 62.4427 159.267 62.4427 157C62.4427 154.76 62.9227 152.787 63.8827 151.08C64.8693 149.347 66.2027 148.027 67.8827 147.12C69.5627 146.187 71.4427 145.72 73.5227 145.72C75.6027 145.72 77.4827 146.187 79.1627 147.12C80.8427 148.027 82.1627 149.333 83.1227 151.04C84.1093 152.747 84.6027 154.733 84.6027 157C84.6027 159.267 84.096 161.267 83.0827 163C82.096 164.707 80.7493 166.027 79.0427 166.96C77.336 167.893 75.4427 168.36 73.3627 168.36ZM73.3627 165.16C74.6693 165.16 75.896 164.853 77.0427 164.24C78.1893 163.627 79.1093 162.707 79.8027 161.48C80.5227 160.253 80.8827 158.76 80.8827 157C80.8827 155.24 80.536 153.747 79.8427 152.52C79.1493 151.293 78.2427 150.387 77.1227 149.8C76.0027 149.187 74.7893 148.88 73.4827 148.88C72.1493 148.88 70.9227 149.187 69.8027 149.8C68.7093 150.387 67.8293 151.293 67.1627 152.52C66.496 153.747 66.1627 155.24 66.1627 157C66.1627 158.787 66.4827 160.293 67.1227 161.52C67.7893 162.747 68.6693 163.667 69.7627 164.28C70.856 164.867 72.056 165.16 73.3627 165.16ZM93.8286 149.08V162C93.8286 163.067 94.0553 163.827 94.5086 164.28C94.9619 164.707 95.7486 164.92 96.8686 164.92H99.5486V168H96.2686C94.2419 168 92.7219 167.533 91.7086 166.6C90.6953 165.667 90.1886 164.133 90.1886 162V149.08H87.3486V146.08H90.1886V140.56H93.8286V146.08H99.5486V149.08H93.8286ZM123.959 156.2C123.959 156.893 123.919 157.627 123.839 158.4H106.319C106.452 160.56 107.186 162.253 108.519 163.48C109.879 164.68 111.519 165.28 113.439 165.28C115.012 165.28 116.319 164.92 117.359 164.2C118.426 163.453 119.172 162.467 119.599 161.24H123.519C122.932 163.347 121.759 165.067 119.999 166.4C118.239 167.707 116.052 168.36 113.439 168.36C111.359 168.36 109.492 167.893 107.839 166.96C106.212 166.027 104.932 164.707 103.999 163C103.066 161.267 102.599 159.267 102.599 157C102.599 154.733 103.052 152.747 103.959 151.04C104.866 149.333 106.132 148.027 107.759 147.12C109.412 146.187 111.306 145.72 113.439 145.72C115.519 145.72 117.359 146.173 118.959 147.08C120.559 147.987 121.786 149.24 122.639 150.84C123.519 152.413 123.959 154.2 123.959 156.2ZM120.199 155.44C120.199 154.053 119.892 152.867 119.279 151.88C118.666 150.867 117.826 150.107 116.759 149.6C115.719 149.067 114.559 148.8 113.279 148.8C111.439 148.8 109.866 149.387 108.559 150.56C107.279 151.733 106.546 153.36 106.359 155.44H120.199ZM113.319 140.72L107.759 144.12V141.24L113.319 137.92L118.839 141.24V144.12L113.319 140.72ZM139.444 145.68C142.11 145.68 144.27 146.493 145.924 148.12C147.577 149.72 148.404 152.04 148.404 155.08V168H144.804V155.6C144.804 153.413 144.257 151.747 143.164 150.6C142.07 149.427 140.577 148.84 138.684 148.84C136.764 148.84 135.23 149.44 134.084 150.64C132.964 151.84 132.404 153.587 132.404 155.88V168H128.764V146.08H132.404V149.2C133.124 148.08 134.097 147.213 135.324 146.6C136.577 145.987 137.95 145.68 139.444 145.68ZM152.99 157C152.99 154.733 153.443 152.76 154.35 151.08C155.256 149.373 156.51 148.053 158.11 147.12C159.736 146.187 161.59 145.72 163.67 145.72C166.363 145.72 168.576 146.373 170.31 147.68C172.07 148.987 173.23 150.8 173.79 153.12H169.87C169.496 151.787 168.763 150.733 167.67 149.96C166.603 149.187 165.27 148.8 163.67 148.8C161.59 148.8 159.91 149.52 158.63 150.96C157.35 152.373 156.71 154.387 156.71 157C156.71 159.64 157.35 161.68 158.63 163.12C159.91 164.56 161.59 165.28 163.67 165.28C165.27 165.28 166.603 164.907 167.67 164.16C168.736 163.413 169.47 162.347 169.87 160.96H173.79C173.203 163.2 172.03 165 170.27 166.36C168.51 167.693 166.31 168.36 163.67 168.36C161.59 168.36 159.736 167.893 158.11 166.96C156.51 166.027 155.256 164.707 154.35 163C153.443 161.293 152.99 159.293 152.99 157ZM180.526 142.52C179.833 142.52 179.246 142.28 178.766 141.8C178.286 141.32 178.046 140.733 178.046 140.04C178.046 139.347 178.286 138.76 178.766 138.28C179.246 137.8 179.833 137.56 180.526 137.56C181.193 137.56 181.753 137.8 182.206 138.28C182.686 138.76 182.926 139.347 182.926 140.04C182.926 140.733 182.686 141.32 182.206 141.8C181.753 142.28 181.193 142.52 180.526 142.52ZM182.286 146.08V168H178.646V146.08H182.286ZM187.13 156.96C187.13 154.72 187.583 152.76 188.49 151.08C189.397 149.373 190.637 148.053 192.21 147.12C193.81 146.187 195.583 145.72 197.53 145.72C199.45 145.72 201.117 146.133 202.53 146.96C203.943 147.787 204.997 148.827 205.69 150.08V146.08H209.37V168H205.69V163.92C204.97 165.2 203.89 166.267 202.45 167.12C201.037 167.947 199.383 168.36 197.49 168.36C195.543 168.36 193.783 167.88 192.21 166.92C190.637 165.96 189.397 164.613 188.49 162.88C187.583 161.147 187.13 159.173 187.13 156.96ZM205.69 157C205.69 155.347 205.357 153.907 204.69 152.68C204.023 151.453 203.117 150.52 201.97 149.88C200.85 149.213 199.61 148.88 198.25 148.88C196.89 148.88 195.65 149.2 194.53 149.84C193.41 150.48 192.517 151.413 191.85 152.64C191.183 153.867 190.85 155.307 190.85 156.96C190.85 158.64 191.183 160.107 191.85 161.36C192.517 162.587 193.41 163.533 194.53 164.2C195.65 164.84 196.89 165.16 198.25 165.16C199.61 165.16 200.85 164.84 201.97 164.2C203.117 163.533 204.023 162.587 204.69 161.36C205.357 160.107 205.69 158.653 205.69 157Z" fill="#00B4D8"/>
</svg>
