<svg width="249" height="207" viewBox="0 0 249 207" fill="none" xmlns="http://www.w3.org/2000/svg">
<rect width="249" height="207" rx="10" fill="#F8F7FF"/>
<path d="M143.58 57.5883C146.2 57.5883 147.758 57.5882 148.625 57.5882C145.572 57.5881 151.834 57.5882 148.625 57.5882C148.883 57.5882 149.208 57.5883 149.611 57.5883L149.611 57.5883C152.859 57.5884 165.789 57.5888 167.891 74.6516C168.229 77.3923 165.942 79.6533 163.181 79.6533L162.57 79.6533C159.808 79.6533 157.659 77.3883 157.125 74.6791C156.167 69.8238 153.662 66.7187 149.611 66.7186L143.568 66.7187C141.046 66.7187 139 64.6747 139 62.1535C139 59.6322 141.059 57.5883 143.58 57.5883Z" fill="white"/>
<path d="M148.625 57.5882C145.572 57.5881 151.834 57.5882 148.625 57.5882Z" fill="white"/>
<path d="M149.611 57.5883C143.158 57.5881 156.718 57.5882 143.58 57.5883C141.059 57.5883 139 59.6322 139 62.1535V62.1535C139 64.6747 141.046 66.7187 143.568 66.7187C146.688 66.7187 147.682 66.7186 149.611 66.7186C153.662 66.7187 156.167 69.8238 157.125 74.6791C157.659 77.3883 159.808 79.6533 162.57 79.6533C162.773 79.6533 162.977 79.6533 163.181 79.6533C165.942 79.6533 168.229 77.3923 167.891 74.6516C165.789 57.5883 152.858 57.5884 149.611 57.5883Z" stroke="#00B4D8"/>
<rect x="115.5" y="40.1021" width="11.506" height="8.19384" rx="4.09692" fill="white" stroke="#00B4D8"/>
<rect x="104.5" y="31.5" width="32.3494" height="8.19384" rx="4.09692" fill="white" stroke="#00B4D8"/>
<rect x="93.006" y="57.75" width="9.42169" height="10.0326" rx="4.5" fill="white" stroke="#00B4D8"/>
<rect x="79.5" y="47.1401" width="13.5904" height="32.0978" rx="4.5" fill="white" stroke="#00B4D8"/>
<rect x="102.5" y="48.7041" width="36.5181" height="28.4203" rx="4.5" fill="white" stroke="#00B4D8"/>
<path d="M169.006 95.6369C169.006 98.2534 166.505 100.5 163.253 100.5C160.001 100.5 157.5 98.2534 157.5 95.6369C157.5 95.5061 157.51 95.3639 157.532 95.2104C157.664 94.2621 158.327 93.5045 159.378 92.9681C160.429 92.4309 161.812 92.1506 163.221 92.1507C164.63 92.1507 166.018 92.4312 167.081 92.9687C168.143 93.506 168.822 94.2653 168.97 95.2136C168.994 95.3657 169.006 95.5067 169.006 95.6369Z" fill="white" stroke="#00B4D8"/>
<path d="M87.6786 140.12L77.1586 168H72.9586L62.4386 140.12H66.3186L75.0786 164.16L83.8386 140.12H87.6786ZM90.3098 156.96C90.3098 154.72 90.7632 152.76 91.6698 151.08C92.5765 149.373 93.8165 148.053 95.3898 147.12C96.9898 146.187 98.7632 145.72 100.71 145.72C102.63 145.72 104.297 146.133 105.71 146.96C107.123 147.787 108.177 148.827 108.87 150.08V146.08H112.55V168H108.87V163.92C108.15 165.2 107.07 166.267 105.63 167.12C104.217 167.947 102.563 168.36 100.67 168.36C98.7232 168.36 96.9632 167.88 95.3898 166.92C93.8165 165.96 92.5765 164.613 91.6698 162.88C90.7632 161.147 90.3098 159.173 90.3098 156.96ZM108.87 157C108.87 155.347 108.537 153.907 107.87 152.68C107.203 151.453 106.297 150.52 105.15 149.88C104.03 149.213 102.79 148.88 101.43 148.88C100.07 148.88 98.8298 149.2 97.7098 149.84C96.5898 150.48 95.6965 151.413 95.0298 152.64C94.3632 153.867 94.0298 155.307 94.0298 156.96C94.0298 158.64 94.3632 160.107 95.0298 161.36C95.6965 162.587 96.5898 163.533 97.7098 164.2C98.8298 164.84 100.07 165.16 101.43 165.16C102.79 165.16 104.03 164.84 105.15 164.2C106.297 163.533 107.203 162.587 107.87 161.36C108.537 160.107 108.87 158.653 108.87 157ZM121.421 165H132.181V168H117.261V165L127.901 149.04H117.341V146.08H132.101V149.04L121.421 165ZM135.544 156.96C135.544 154.72 135.998 152.76 136.904 151.08C137.811 149.373 139.051 148.053 140.624 147.12C142.224 146.187 143.998 145.72 145.944 145.72C147.864 145.72 149.531 146.133 150.944 146.96C152.358 147.787 153.411 148.827 154.104 150.08V146.08H157.784V168H154.104V163.92C153.384 165.2 152.304 166.267 150.864 167.12C149.451 167.947 147.798 168.36 145.904 168.36C143.958 168.36 142.198 167.88 140.624 166.92C139.051 165.96 137.811 164.613 136.904 162.88C135.998 161.147 135.544 159.173 135.544 156.96ZM154.104 157C154.104 155.347 153.771 153.907 153.104 152.68C152.438 151.453 151.531 150.52 150.384 149.88C149.264 149.213 148.024 148.88 146.664 148.88C145.304 148.88 144.064 149.2 142.944 149.84C141.824 150.48 140.931 151.413 140.264 152.64C139.598 153.867 139.264 155.307 139.264 156.96C139.264 158.64 139.598 160.107 140.264 161.36C140.931 162.587 141.824 163.533 142.944 164.2C144.064 164.84 145.304 165.16 146.664 165.16C148.024 165.16 149.264 164.84 150.384 164.2C151.531 163.533 152.438 162.587 153.104 161.36C153.771 160.107 154.104 158.653 154.104 157ZM141.504 143.72C141.691 142.36 142.131 141.32 142.824 140.6C143.544 139.88 144.438 139.52 145.504 139.52C146.011 139.52 146.438 139.613 146.784 139.8C147.158 139.96 147.598 140.2 148.104 140.52C148.478 140.787 148.811 141 149.104 141.16C149.398 141.293 149.718 141.36 150.064 141.36C150.518 141.36 150.904 141.213 151.224 140.92C151.544 140.627 151.744 140.2 151.824 139.64H153.904C153.744 140.973 153.304 142 152.584 142.72C151.864 143.44 150.971 143.8 149.904 143.8C149.398 143.8 148.944 143.72 148.544 143.56C148.171 143.373 147.744 143.107 147.264 142.76C146.838 142.493 146.491 142.293 146.224 142.16C145.984 142.027 145.691 141.96 145.344 141.96C144.891 141.96 144.504 142.107 144.184 142.4C143.891 142.693 143.704 143.133 143.624 143.72H141.504ZM173.495 168.36C171.442 168.36 169.575 167.893 167.895 166.96C166.242 166.027 164.935 164.707 163.975 163C163.042 161.267 162.575 159.267 162.575 157C162.575 154.76 163.055 152.787 164.015 151.08C165.002 149.347 166.335 148.027 168.015 147.12C169.695 146.187 171.575 145.72 173.655 145.72C175.735 145.72 177.615 146.187 179.295 147.12C180.975 148.027 182.295 149.333 183.255 151.04C184.242 152.747 184.735 154.733 184.735 157C184.735 159.267 184.229 161.267 183.215 163C182.229 164.707 180.882 166.027 179.175 166.96C177.469 167.893 175.575 168.36 173.495 168.36ZM173.495 165.16C174.802 165.16 176.029 164.853 177.175 164.24C178.322 163.627 179.242 162.707 179.935 161.48C180.655 160.253 181.015 158.76 181.015 157C181.015 155.24 180.669 153.747 179.975 152.52C179.282 151.293 178.375 150.387 177.255 149.8C176.135 149.187 174.922 148.88 173.615 148.88C172.282 148.88 171.055 149.187 169.935 149.8C168.842 150.387 167.962 151.293 167.295 152.52C166.629 153.747 166.295 155.24 166.295 157C166.295 158.787 166.615 160.293 167.255 161.52C167.922 162.747 168.802 163.667 169.895 164.28C170.989 164.867 172.189 165.16 173.495 165.16Z" fill="#00B4D8"/>
</svg>
