<svg width="249" height="207" viewBox="0 0 249 207" fill="none" xmlns="http://www.w3.org/2000/svg">
<rect width="249" height="207" rx="10" fill="#F8F7FF"/>
<path d="M175.5 70C175.5 89.6264 160.258 105.5 141.5 105.5C122.742 105.5 107.5 89.6264 107.5 70C107.5 50.3736 122.742 34.5 141.5 34.5C160.258 34.5 175.5 50.3736 175.5 70Z" fill="white" stroke="#00B4D8"/>
<path d="M148.5 70C148.5 74.0664 145.346 77.3261 141.5 77.3261C137.654 77.3261 134.5 74.0664 134.5 70C134.5 65.9337 137.654 62.6739 141.5 62.6739C145.346 62.6739 148.5 65.9337 148.5 70Z" fill="white" stroke="#00B4D8"/>
<line y1="-0.5" x2="20.2505" y2="-0.5" transform="matrix(0.329345 -0.94421 0.934847 0.35505 144.222 64.1779)" stroke="#00B4D8"/>
<path d="M86 41.8261H110" stroke="#00B4D8"/>
<path d="M78.5 55.9131H102.5" stroke="#00B4D8"/>
<path d="M78.5 84.0869H102.5" stroke="#00B4D8"/>
<line x1="86" y1="97.6739" x2="110" y2="97.6739" stroke="#00B4D8"/>
<line x1="74" y1="69.5" x2="102.5" y2="69.5" stroke="#00B4D8"/>
<path d="M36.9677 140.12L26.4477 168H22.2477L11.7277 140.12H15.6077L24.3677 164.16L33.1277 140.12H36.9677ZM60.9589 156.2C60.9589 156.893 60.9189 157.627 60.8389 158.4H43.3189C43.4522 160.56 44.1856 162.253 45.5189 163.48C46.8789 164.68 48.5189 165.28 50.4389 165.28C52.0122 165.28 53.3189 164.92 54.3589 164.2C55.4256 163.453 56.1722 162.467 56.5989 161.24H60.5189C59.9322 163.347 58.7589 165.067 56.9989 166.4C55.2389 167.707 53.0522 168.36 50.4389 168.36C48.3589 168.36 46.4922 167.893 44.8389 166.96C43.2122 166.027 41.9322 164.707 40.9989 163C40.0656 161.267 39.5989 159.267 39.5989 157C39.5989 154.733 40.0522 152.747 40.9589 151.04C41.8656 149.333 43.1322 148.027 44.7589 147.12C46.4122 146.187 48.3056 145.72 50.4389 145.72C52.5189 145.72 54.3589 146.173 55.9589 147.08C57.5589 147.987 58.7856 149.24 59.6389 150.84C60.5189 152.413 60.9589 154.2 60.9589 156.2ZM57.1989 155.44C57.1989 154.053 56.8922 152.867 56.2789 151.88C55.6656 150.867 54.8256 150.107 53.7589 149.6C52.7189 149.067 51.5589 148.8 50.2789 148.8C48.4389 148.8 46.8656 149.387 45.5589 150.56C44.2789 151.733 43.5456 153.36 43.3589 155.44H57.1989ZM69.4036 138.4V168H65.7636V138.4H69.4036ZM85.1673 168.36C83.114 168.36 81.2473 167.893 79.5673 166.96C77.914 166.027 76.6073 164.707 75.6473 163C74.714 161.267 74.2473 159.267 74.2473 157C74.2473 154.76 74.7273 152.787 75.6873 151.08C76.674 149.347 78.0073 148.027 79.6873 147.12C81.3673 146.187 83.2473 145.72 85.3273 145.72C87.4073 145.72 89.2873 146.187 90.9673 147.12C92.6473 148.027 93.9673 149.333 94.9273 151.04C95.914 152.747 96.4073 154.733 96.4073 157C96.4073 159.267 95.9007 161.267 94.8873 163C93.9007 164.707 92.554 166.027 90.8473 166.96C89.1407 167.893 87.2473 168.36 85.1673 168.36ZM85.1673 165.16C86.474 165.16 87.7007 164.853 88.8473 164.24C89.994 163.627 90.914 162.707 91.6073 161.48C92.3273 160.253 92.6873 158.76 92.6873 157C92.6873 155.24 92.3407 153.747 91.6473 152.52C90.954 151.293 90.0473 150.387 88.9273 149.8C87.8073 149.187 86.594 148.88 85.2873 148.88C83.954 148.88 82.7273 149.187 81.6073 149.8C80.514 150.387 79.634 151.293 78.9673 152.52C78.3007 153.747 77.9673 155.24 77.9673 157C77.9673 158.787 78.2873 160.293 78.9273 161.52C79.594 162.747 80.474 163.667 81.5673 164.28C82.6607 164.867 83.8607 165.16 85.1673 165.16ZM99.8333 157C99.8333 154.733 100.287 152.76 101.193 151.08C102.1 149.373 103.353 148.053 104.953 147.12C106.58 146.187 108.433 145.72 110.513 145.72C113.207 145.72 115.42 146.373 117.153 147.68C118.913 148.987 120.073 150.8 120.633 153.12H116.713C116.34 151.787 115.607 150.733 114.513 149.96C113.447 149.187 112.113 148.8 110.513 148.8C108.433 148.8 106.753 149.52 105.473 150.96C104.193 152.373 103.553 154.387 103.553 157C103.553 159.64 104.193 161.68 105.473 163.12C106.753 164.56 108.433 165.28 110.513 165.28C112.113 165.28 113.447 164.907 114.513 164.16C115.58 163.413 116.313 162.347 116.713 160.96H120.633C120.047 163.2 118.873 165 117.113 166.36C115.353 167.693 113.153 168.36 110.513 168.36C108.433 168.36 106.58 167.893 104.953 166.96C103.353 166.027 102.1 164.707 101.193 163C100.287 161.293 99.8333 159.293 99.8333 157ZM127.37 142.52C126.677 142.52 126.09 142.28 125.61 141.8C125.13 141.32 124.89 140.733 124.89 140.04C124.89 139.347 125.13 138.76 125.61 138.28C126.09 137.8 126.677 137.56 127.37 137.56C128.037 137.56 128.597 137.8 129.05 138.28C129.53 138.76 129.77 139.347 129.77 140.04C129.77 140.733 129.53 141.32 129.05 141.8C128.597 142.28 128.037 142.52 127.37 142.52ZM129.13 146.08V168H125.49V146.08H129.13ZM133.974 156.96C133.974 154.72 134.427 152.76 135.334 151.08C136.241 149.373 137.481 148.053 139.054 147.12C140.654 146.187 142.441 145.72 144.414 145.72C146.121 145.72 147.707 146.12 149.174 146.92C150.641 147.693 151.761 148.72 152.534 150V138.4H156.214V168H152.534V163.88C151.814 165.187 150.747 166.267 149.334 167.12C147.921 167.947 146.267 168.36 144.374 168.36C142.427 168.36 140.654 167.88 139.054 166.92C137.481 165.96 136.241 164.613 135.334 162.88C134.427 161.147 133.974 159.173 133.974 156.96ZM152.534 157C152.534 155.347 152.201 153.907 151.534 152.68C150.867 151.453 149.961 150.52 148.814 149.88C147.694 149.213 146.454 148.88 145.094 148.88C143.734 148.88 142.494 149.2 141.374 149.84C140.254 150.48 139.361 151.413 138.694 152.64C138.027 153.867 137.694 155.307 137.694 156.96C137.694 158.64 138.027 160.107 138.694 161.36C139.361 162.587 140.254 163.533 141.374 164.2C142.494 164.84 143.734 165.16 145.094 165.16C146.454 165.16 147.694 164.84 148.814 164.2C149.961 163.533 150.867 162.587 151.534 161.36C152.201 160.107 152.534 158.653 152.534 157ZM161.005 156.96C161.005 154.72 161.458 152.76 162.365 151.08C163.272 149.373 164.512 148.053 166.085 147.12C167.685 146.187 169.458 145.72 171.405 145.72C173.325 145.72 174.992 146.133 176.405 146.96C177.818 147.787 178.872 148.827 179.565 150.08V146.08H183.245V168H179.565V163.92C178.845 165.2 177.765 166.267 176.325 167.12C174.912 167.947 173.258 168.36 171.365 168.36C169.418 168.36 167.658 167.88 166.085 166.92C164.512 165.96 163.272 164.613 162.365 162.88C161.458 161.147 161.005 159.173 161.005 156.96ZM179.565 157C179.565 155.347 179.232 153.907 178.565 152.68C177.898 151.453 176.992 150.52 175.845 149.88C174.725 149.213 173.485 148.88 172.125 148.88C170.765 148.88 169.525 149.2 168.405 149.84C167.285 150.48 166.392 151.413 165.725 152.64C165.058 153.867 164.725 155.307 164.725 156.96C164.725 158.64 165.058 160.107 165.725 161.36C166.392 162.587 167.285 163.533 168.405 164.2C169.525 164.84 170.765 165.16 172.125 165.16C173.485 165.16 174.725 164.84 175.845 164.2C176.992 163.533 177.898 162.587 178.565 161.36C179.232 160.107 179.565 158.653 179.565 157ZM188.036 156.96C188.036 154.72 188.49 152.76 189.396 151.08C190.303 149.373 191.543 148.053 193.116 147.12C194.716 146.187 196.503 145.72 198.476 145.72C200.183 145.72 201.77 146.12 203.236 146.92C204.703 147.693 205.823 148.72 206.596 150V138.4H210.276V168H206.596V163.88C205.876 165.187 204.81 166.267 203.396 167.12C201.983 167.947 200.33 168.36 198.436 168.36C196.49 168.36 194.716 167.88 193.116 166.92C191.543 165.96 190.303 164.613 189.396 162.88C188.49 161.147 188.036 159.173 188.036 156.96ZM206.596 157C206.596 155.347 206.263 153.907 205.596 152.68C204.93 151.453 204.023 150.52 202.876 149.88C201.756 149.213 200.516 148.88 199.156 148.88C197.796 148.88 196.556 149.2 195.436 149.84C194.316 150.48 193.423 151.413 192.756 152.64C192.09 153.867 191.756 155.307 191.756 156.96C191.756 158.64 192.09 160.107 192.756 161.36C193.423 162.587 194.316 163.533 195.436 164.2C196.556 164.84 197.796 165.16 199.156 165.16C200.516 165.16 201.756 164.84 202.876 164.2C204.023 163.533 204.93 162.587 205.596 161.36C206.263 160.107 206.596 158.653 206.596 157ZM236.428 156.2C236.428 156.893 236.388 157.627 236.308 158.4H218.788C218.921 160.56 219.654 162.253 220.988 163.48C222.348 164.68 223.988 165.28 225.908 165.28C227.481 165.28 228.788 164.92 229.828 164.2C230.894 163.453 231.641 162.467 232.068 161.24H235.988C235.401 163.347 234.228 165.067 232.468 166.4C230.708 167.707 228.521 168.36 225.908 168.36C223.828 168.36 221.961 167.893 220.308 166.96C218.681 166.027 217.401 164.707 216.468 163C215.534 161.267 215.068 159.267 215.068 157C215.068 154.733 215.521 152.747 216.428 151.04C217.334 149.333 218.601 148.027 220.228 147.12C221.881 146.187 223.774 145.72 225.908 145.72C227.988 145.72 229.828 146.173 231.428 147.08C233.028 147.987 234.254 149.24 235.108 150.84C235.988 152.413 236.428 154.2 236.428 156.2ZM232.668 155.44C232.668 154.053 232.361 152.867 231.748 151.88C231.134 150.867 230.294 150.107 229.228 149.6C228.188 149.067 227.028 148.8 225.748 148.8C223.908 148.8 222.334 149.387 221.028 150.56C219.748 151.733 219.014 153.36 218.828 155.44H232.668Z" fill="#00B4D8"/>
</svg>
