<svg width="91" height="70" viewBox="0 0 91 70" fill="none" xmlns="http://www.w3.org/2000/svg">
<path d="M60 26.5883C65.5339 26.5883 68.3397 26.5883 69.6253 26.5882C66.5723 26.5881 72.8341 26.5882 69.6253 26.5882C69.8835 26.5882 70.2083 26.5883 70.6112 26.5883L70.6115 26.5883C74.1491 26.5884 89.1807 26.5889 89.1807 48.6533L78.5696 48.6533C78.5696 41.0448 75.9168 35.7187 70.6112 35.7186H60V26.5883Z" fill="white"/>
<path d="M69.6253 26.5882C66.5723 26.5881 72.8341 26.5882 69.6253 26.5882V26.5882Z" fill="white"/>
<path d="M60 26.5883C65.5339 26.5883 68.3397 26.5883 69.6253 26.5882C66.5723 26.5881 72.8341 26.5882 69.6253 26.5882C69.8835 26.5882 70.2083 26.5883 70.6112 26.5883L70.6115 26.5883C74.1491 26.5884 89.1807 26.5889 89.1807 48.6533L78.5696 48.6533C78.5696 41.0448 75.9168 35.7187 70.6112 35.7186H60V26.5883Z" stroke="#00B4D8"/>
<path d="M69.6253 26.5882C66.5723 26.5881 72.8341 26.5882 69.6253 26.5882V26.5882Z" stroke="#00B4D8"/>
<rect x="36.5" y="9.10205" width="11.506" height="8.19384" fill="white" stroke="#00B4D8"/>
<rect x="25.5" y="0.5" width="32.3494" height="8.19384" rx="4.09692" fill="white" stroke="#00B4D8"/>
<rect x="14.006" y="26.75" width="9.42169" height="10.0326" fill="white" stroke="#00B4D8"/>
<rect x="0.5" y="16.1401" width="13.5904" height="32.0978" fill="white" stroke="#00B4D8"/>
<rect x="23.5" y="17.7041" width="36.5181" height="28.4203" rx="2.5" fill="white" stroke="#00B4D8"/>
<path d="M90.006 64.6369C90.006 67.2534 87.5051 69.5 84.253 69.5C81.0009 69.5 78.5 67.2534 78.5 64.6369C78.5 64.003 78.7441 63.16 79.1846 62.1436C79.62 61.1388 80.2231 60.0175 80.8913 58.841C81.1984 58.3003 81.5199 57.7471 81.844 57.1894C82.6754 55.759 83.5236 54.2995 84.1878 52.949C84.9368 54.836 86.1231 56.7965 87.2131 58.5979C87.294 58.7315 87.3744 58.8644 87.454 58.9962C88.1534 60.1544 88.7972 61.2394 89.2669 62.2155C89.7422 63.2034 90.006 64.0149 90.006 64.6369Z" fill="white" stroke="#00B4D8"/>
</svg>
