<svg width="102" height="72" viewBox="0 0 102 72" fill="none" xmlns="http://www.w3.org/2000/svg">
<path d="M101.5 36C101.5 55.6264 86.2578 71.5 67.5 71.5C48.7422 71.5 33.5 55.6264 33.5 36C33.5 16.3736 48.7422 0.5 67.5 0.5C86.2578 0.5 101.5 16.3736 101.5 36Z" fill="white" stroke="#00B4D8"/>
<path d="M74.5 36C74.5 40.0664 71.3462 43.3261 67.5 43.3261C63.6538 43.3261 60.5 40.0664 60.5 36C60.5 31.9337 63.6538 28.6739 67.5 28.6739C71.3462 28.6739 74.5 31.9337 74.5 36Z" fill="white" stroke="#00B4D8"/>
<line y1="-0.5" x2="20.2505" y2="-0.5" transform="matrix(0.329345 -0.94421 0.934847 0.35505 70.222 30.1779)" stroke="#00B4D8"/>
<path d="M12 7.82608H36" stroke="#00B4D8"/>
<path d="M4.5 21.9131H28.5" stroke="#00B4D8"/>
<path d="M4.5 50.0869H28.5" stroke="#00B4D8"/>
<line x1="12" y1="63.6739" x2="36" y2="63.6739" stroke="#00B4D8"/>
<line y1="35.5" x2="28.5" y2="35.5" stroke="#00B4D8"/>
</svg>
