<svg width="96" height="96" viewBox="0 0 96 96" fill="none" xmlns="http://www.w3.org/2000/svg">
<circle cx="48" cy="48" r="47.5" fill="#00B4D8" stroke="#00B4D8"/>
<circle cx="48" cy="48" r="42.7" fill="white" stroke="#00B4D8"/>
<line x1="2.10002" y1="47.5" x2="93.9" y2="47.5" stroke="#00B4D8" stroke-linecap="round" stroke-dasharray="2 2"/>
<path d="M45.6409 40.992C45.6409 40.544 45.7315 40.152 45.9129 39.816C46.0942 39.4747 46.3422 39.2107 46.6569 39.024C46.9769 38.8373 47.3342 38.744 47.7289 38.744C48.0702 38.744 48.3875 38.824 48.6809 38.984C48.9742 39.1387 49.1982 39.344 49.3529 39.6V37.28H50.0889V43.2H49.3529V42.376C49.2089 42.6373 48.9955 42.8533 48.7129 43.024C48.4302 43.1893 48.0995 43.272 47.7209 43.272C47.3315 43.272 46.9769 43.176 46.6569 42.984C46.3422 42.792 46.0942 42.5227 45.9129 42.176C45.7315 41.8293 45.6409 41.4347 45.6409 40.992ZM49.3529 41C49.3529 40.6693 49.2862 40.3813 49.1529 40.136C49.0195 39.8907 48.8382 39.704 48.6089 39.576C48.3849 39.4427 48.1369 39.376 47.8649 39.376C47.5929 39.376 47.3449 39.44 47.1209 39.568C46.8969 39.696 46.7182 39.8827 46.5849 40.128C46.4515 40.3733 46.3849 40.6613 46.3849 40.992C46.3849 41.328 46.4515 41.6213 46.5849 41.872C46.7182 42.1173 46.8969 42.3067 47.1209 42.44C47.3449 42.568 47.5929 42.632 47.8649 42.632C48.1369 42.632 48.3849 42.568 48.6089 42.44C48.8382 42.3067 49.0195 42.1173 49.1529 41.872C49.2862 41.6213 49.3529 41.3307 49.3529 41Z" fill="#00B4D8"/>
</svg>
