<svg width="201" height="70" viewBox="0 0 201 70" fill="none" xmlns="http://www.w3.org/2000/svg">
<path d="M13.1433 20.8017L13.8064 19.5H185.213L185.931 20.7274C194.782 35.8591 194.502 54.6445 185.224 69.5H13.7963C5.5712 54.3723 5.32132 36.1559 13.1433 20.8017Z" fill="white" stroke="#00B4D8"/>
<path d="M110 0.5H119V48.7597L110 55.9597V0.5Z" fill="white" stroke="#00B4D8"/>
<line x1="21.5" y1="31.5" x2="49.5" y2="31.5" stroke="#00B4D8"/>
<line x1="62.5" y1="31.5" x2="92.5" y2="31.5" stroke="#00B4D8"/>
<line x1="54.5" y1="31.5" x2="57.5" y2="31.5" stroke="#00B4D8"/>
<line x1="21.5" y1="56.5" x2="51.5" y2="56.5" stroke="#00B4D8"/>
<line x1="62.5" y1="56.5" x2="96.5" y2="56.5" stroke="#00B4D8"/>
<line x1="55.5" y1="56.5" x2="58.5" y2="56.5" stroke="#00B4D8"/>
<line x1="15.5" y1="43.5" x2="49.5" y2="43.5" stroke="#00B4D8"/>
<line x1="58.5" y1="43.5" x2="92.5" y2="43.5" stroke="#00B4D8"/>
<line x1="52.5" y1="43.5" x2="55.5" y2="43.5" stroke="#00B4D8"/>
<line x1="95.5" y1="43.5" x2="98.5" y2="43.5" stroke="#00B4D8"/>
<line x1="123.5" y1="56.5" x2="145.5" y2="56.5" stroke="#00B4D8"/>
<line x1="153.5" y1="56.5" x2="173.5" y2="56.5" stroke="#00B4D8"/>
<line x1="148.5" y1="56.5" x2="150.409" y2="56.5" stroke="#00B4D8"/>
<line x1="130.5" y1="43.5" x2="148.5" y2="43.5" stroke="#00B4D8"/>
<line x1="153.5" y1="43.5" x2="176.5" y2="43.5" stroke="#00B4D8"/>
<line x1="150.045" y1="43.5" x2="151.955" y2="43.5" stroke="#00B4D8"/>
</svg>
