<svg width="174" height="95" viewBox="0 0 174 95" fill="none" xmlns="http://www.w3.org/2000/svg">
<rect x="24.8925" y="7.45123" width="77.0561" height="64.6504" fill="white" stroke="#00B4D8"/>
<rect x="13.5093" y="0.5" width="11.1963" height="77.7805" rx="5.59813" fill="white" stroke="#00B4D8"/>
<rect x="102.136" y="0.5" width="11.1963" height="77.7805" rx="5.59813" fill="white" stroke="#00B4D8"/>
<path d="M0.5 20.7737C0.5 13.5833 6.19633 7.72337 13.3224 7.46044V72.0924C6.19633 71.8295 0.5 65.9696 0.5 58.7792V20.7737Z" fill="white" stroke="#00B4D8"/>
<path d="M126.341 58.7792C126.341 65.9696 120.645 71.8295 113.519 72.0924L113.519 7.46043C120.645 7.72336 126.341 13.5833 126.341 20.7736V58.7792Z" fill="white" stroke="#00B4D8"/>
<rect x="37.0888" y="72.3293" width="8.75701" height="12.9024" fill="white" stroke="#00B4D8"/>
<rect x="80.9953" y="72.3293" width="8.75701" height="12.9024" fill="white" stroke="#00B4D8"/>
<path d="M11.0701 89.187C11.0701 86.7017 13.0848 84.687 15.5701 84.687H112.084C114.569 84.687 116.584 86.7017 116.584 89.187V94.5H11.0701V89.187Z" fill="white" stroke="#00B4D8"/>
<line x1="35.1495" y1="17.5366" x2="91.6916" y2="17.5366" stroke="#00B4D8" stroke-width="2" stroke-linecap="round"/>
<line x1="35.1495" y1="27.5772" x2="91.6916" y2="27.5772" stroke="#00B4D8" stroke-width="2" stroke-linecap="round"/>
<line x1="35.1495" y1="38.7764" x2="91.6916" y2="38.7764" stroke="#00B4D8" stroke-width="2" stroke-linecap="round"/>
<line x1="35.1495" y1="50.748" x2="91.6916" y2="50.748" stroke="#00B4D8" stroke-width="2" stroke-linecap="round"/>
<line x1="35.1495" y1="60.0163" x2="91.6916" y2="60.0163" stroke="#00B4D8" stroke-width="2" stroke-linecap="round"/>
<path d="M126.528 22.8984H132.168C140.176 22.8984 146.668 29.3902 146.668 37.3984V41.3821C146.668 49.3903 140.176 55.8821 132.168 55.8821H126.528V22.8984Z" fill="white" stroke="#00B4D8"/>
<rect x="146.855" y="33.7114" width="26.6449" height="11.3577" fill="white" stroke="#00B4D8"/>
</svg>
